<svg width="194" height="35" fill="none" xmlns="http://www.w3.org/2000/svg"><path d="M187.042 1.331H6.96A5.628 5.628 0 0 0 1.332 6.96v21.186a5.628 5.628 0 0 0 5.628 5.627h180.082a5.628 5.628 0 0 0 5.628-5.627V6.959a5.628 5.628 0 0 0-5.628-5.628Z" fill="#0A0A0A"/><path d="M187.042 1.331H6.96A5.628 5.628 0 0 0 1.332 6.96v21.186a5.628 5.628 0 0 0 5.628 5.627h180.082a5.628 5.628 0 0 0 5.628-5.627V6.959a5.628 5.628 0 0 0-5.628-5.628Z" stroke="#363636"/><path d="M26.385 15.146a.57.57 0 0 0 .287-.5V12.6a1.364 1.364 0 0 0-.866-1.272l-5.864-2.24A1.364 1.364 0 0 0 19.465 9v2.789l4.432 1.704-4.432 2.554v3.108l6.92-4.009ZM18.98 9.089l-5.86 2.24a1.364 1.364 0 0 0-.866 1.27v5.64l2.693-1.548v-3.17l4.514-1.732V9c-.165 0-.327.03-.481.089ZM19.942 26.125l5.864-2.24a1.364 1.364 0 0 0 .866-1.257V16.93l-2.694 1.555V21.7l-4.513 1.725v2.789c.163 0 .325-.03.477-.089ZM14.995 21.715l4.466-2.574v-3.11l-6.9 3.979a.621.621 0 0 0-.307.532v2.083a1.363 1.363 0 0 0 .866 1.258l5.86 2.24c.154.058.316.088.48.088v-2.788l-4.465-1.708ZM51.733 11.668c1.342 0 2.322.276 2.938.825.616.55.924 1.321.924 2.312 0 .45-.07.88-.213 1.287a2.732 2.732 0 0 1-.683 1.074c-.317.308-.737.552-1.258.733-.517.18-1.155.27-1.914.27h-1.11v3.897h-1.706V11.67h3.023Zm-.113 1.416h-1.202v3.663h.931c.536 0 .992-.062 1.366-.185.375-.128.66-.33.853-.605.195-.275.292-.638.292-1.088 0-.602-.182-1.05-.547-1.344-.36-.294-.925-.441-1.693-.441Zm12.851 5.028c0 .654-.085 1.235-.256 1.743a3.49 3.49 0 0 1-.747 1.287c-.327.346-.72.611-1.18.796-.46.18-.98.27-1.558.27-.54 0-1.036-.09-1.486-.27a3.391 3.391 0 0 1-1.174-.796c-.327-.351-.58-.78-.76-1.287-.18-.508-.27-1.089-.27-1.743 0-.868.148-1.602.447-2.205a3.191 3.191 0 0 1 1.295-1.387c.56-.317 1.225-.476 1.998-.476.726 0 1.366.159 1.92.476.555.318.989.78 1.302 1.387.313.607.47 1.342.47 2.205Zm-5.71 0c0 .574.068 1.065.206 1.472.142.408.36.72.654.939.294.213.673.32 1.138.32.464 0 .844-.107 1.138-.32.294-.218.51-.531.647-.939.137-.407.206-.898.206-1.472s-.069-1.06-.206-1.458c-.138-.403-.353-.709-.647-.917-.294-.214-.676-.32-1.145-.32-.693 0-1.198.232-1.515.697-.318.464-.477 1.13-.477 1.998Zm14.067 3.947-.996-3.663-.17-.654c-.067-.256-.133-.519-.2-.79l-.185-.76-.12-.54H71.1c-.024.127-.062.307-.114.54a66.564 66.564 0 0 1-.377 1.565c-.061.26-.118.483-.17.668l-1.046 3.634h-1.835l-2.205-7.873h1.693l1.024 3.912c.066.265.13.552.192.86a21.094 21.094 0 0 1 .278 1.572h.056c.019-.128.045-.29.079-.483a22.457 22.457 0 0 1 .242-1.23 5.34 5.34 0 0 1 .12-.47l1.21-4.16h1.827l1.16 4.16c.051.18.108.407.17.682.061.27.116.543.163.818.053.27.086.496.1.676h.057c.019-.161.052-.38.1-.654.052-.28.11-.576.178-.89.066-.317.135-.61.206-.881l1.045-3.912h1.664l-2.219 7.873h-1.87Zm8.577-8.015c.702 0 1.304.144 1.807.434.502.289.889.7 1.159 1.23.27.531.405 1.167.405 1.906v.896h-5.255c.018.764.222 1.352.61 1.764.395.413.945.619 1.651.619.503 0 .953-.048 1.352-.142.402-.1.817-.245 1.244-.434v1.358c-.394.185-.794.32-1.202.406a7.254 7.254 0 0 1-1.465.128c-.773 0-1.454-.15-2.041-.448a3.276 3.276 0 0 1-1.373-1.352c-.327-.597-.49-1.34-.49-2.226 0-.882.148-1.63.448-2.247.298-.617.718-1.086 1.258-1.408.54-.323 1.172-.484 1.892-.484Zm0 1.259c-.526 0-.953.17-1.28.512-.322.341-.512.842-.57 1.5h3.585a2.762 2.762 0 0 0-.198-1.045 1.52 1.52 0 0 0-.57-.711c-.25-.17-.573-.256-.967-.256Zm9.246-1.26a4.845 4.845 0 0 1 .84.08l-.158 1.564c-.099-.029-.222-.05-.37-.064a3.905 3.905 0 0 0-.383-.021c-.299 0-.583.05-.854.149a2.012 2.012 0 0 0-1.209 1.173c-.119.294-.178.636-.178 1.024v4.118h-1.678v-7.873h1.308l.228 1.387h.078c.157-.28.351-.536.584-.768.232-.232.497-.417.796-.555.304-.142.635-.213.996-.213Zm5.433 0c.702 0 1.305.146 1.807.435.503.289.89.7 1.16 1.23.27.531.404 1.167.404 1.906v.896H94.2c.019.764.222 1.352.611 1.764.394.413.944.619 1.65.619.503 0 .953-.048 1.352-.142.403-.1.818-.245 1.244-.434v1.358c-.393.185-.794.32-1.202.406a7.254 7.254 0 0 1-1.465.128c-.772 0-1.453-.15-2.041-.448a3.276 3.276 0 0 1-1.373-1.352c-.326-.597-.49-1.34-.49-2.226 0-.882.149-1.63.447-2.247.3-.617.719-1.086 1.26-1.408.54-.323 1.171-.484 1.891-.484Zm0 1.26c-.526 0-.952.17-1.28.512-.322.341-.512.842-.569 1.5h3.585a2.76 2.76 0 0 0-.2-1.045 1.52 1.52 0 0 0-.568-.711c-.251-.17-.574-.256-.968-.256Zm7.902 6.906c-.939 0-1.693-.342-2.262-1.024-.564-.688-.846-1.7-.846-3.037 0-1.352.287-2.373.86-3.066.579-.692 1.34-1.038 2.283-1.038.399 0 .747.054 1.046.163.299.105.554.247.768.427.218.18.403.382.555.605h.078a16.378 16.378 0 0 1-.085-.633 7.55 7.55 0 0 1-.043-.775V11h1.679v11.066h-1.309l-.299-1.074h-.071a2.655 2.655 0 0 1-.541.62c-.213.18-.469.324-.768.433a3 3 0 0 1-1.045.164Zm.469-1.359c.716 0 1.221-.206 1.515-.619.294-.412.446-1.03.455-1.856v-.22c0-.882-.142-1.558-.426-2.027-.285-.474-.804-.711-1.558-.711-.602 0-1.062.244-1.38.732-.312.484-.469 1.16-.469 2.027 0 .868.157 1.532.469 1.991.318.456.783.683 1.394.683ZM115.87 11v2.667c0 .308-.009.612-.028.91-.014.294-.029.524-.043.69h.071c.213-.341.51-.628.889-.86.384-.237.875-.356 1.472-.356.934 0 1.686.344 2.255 1.031.569.683.854 1.695.854 3.037 0 .892-.131 1.64-.392 2.248-.261.607-.628 1.066-1.102 1.38-.469.308-1.022.462-1.657.462-.597 0-1.081-.11-1.451-.328a2.869 2.869 0 0 1-.861-.775h-.121l-.306.96h-1.251V11h1.671Zm1.92 4.41c-.474 0-.851.094-1.131.284-.274.19-.474.474-.597.853-.123.375-.187.851-.192 1.43v.15c0 .876.138 1.547.413 2.012.28.465.787.697 1.522.697.583 0 1.031-.235 1.344-.704.313-.474.469-1.152.469-2.034 0-.892-.156-1.562-.469-2.013-.308-.45-.761-.676-1.359-.676Zm4.296-1.217h1.821l1.614 4.495c.072.204.135.405.192.605.062.194.114.386.156.576.048.19.086.379.114.569h.043a9.77 9.77 0 0 1 .2-.825c.09-.308.189-.617.298-.925l1.551-4.495h1.799l-3.378 8.954a4.91 4.91 0 0 1-.719 1.309c-.28.365-.611.64-.995.825-.384.19-.823.285-1.316.285-.237 0-.443-.015-.619-.043a5.113 5.113 0 0 1-.448-.078v-1.337a3.78 3.78 0 0 0 .847.092c.298 0 .556-.06.775-.178.218-.118.402-.287.554-.505.152-.213.278-.457.377-.732l.278-.74-3.144-7.852Zm19.502 7.873h-7.475v-1.173l5.291-7.774h-5.128v-1.45h7.169v1.166l-5.291 7.78h5.434v1.451Zm4.793-8.022c.702 0 1.304.144 1.806.434.503.289.889.7 1.159 1.23.271.531.406 1.167.406 1.906v.896h-5.256c.019.764.223 1.352.612 1.764.394.413.943.619 1.65.619.502 0 .953-.048 1.351-.142.403-.1.818-.245 1.245-.434v1.358a5.45 5.45 0 0 1-1.202.406 7.257 7.257 0 0 1-1.465.128c-.773 0-1.453-.15-2.041-.448a3.275 3.275 0 0 1-1.373-1.352c-.327-.597-.491-1.34-.491-2.226 0-.882.15-1.63.448-2.247.299-.617.719-1.086 1.259-1.408.541-.323 1.171-.484 1.892-.484Zm0 1.259c-.526 0-.953.17-1.28.512-.323.341-.512.842-.569 1.5h3.584a2.743 2.743 0 0 0-.199-1.045 1.51 1.51 0 0 0-.569-.711c-.251-.17-.574-.256-.967-.256Zm9.246-1.26a4.849 4.849 0 0 1 .839.08l-.157 1.564a2.106 2.106 0 0 0-.37-.064 3.878 3.878 0 0 0-.384-.021c-.298 0-.582.05-.853.149-.27.095-.51.242-.718.44a2.002 2.002 0 0 0-.491.733 2.717 2.717 0 0 0-.177 1.024v4.118h-1.679v-7.873h1.308l.228 1.387h.078c.157-.28.351-.536.584-.768.232-.232.497-.417.796-.555.303-.142.636-.213.996-.213Zm9.267 4.069c0 .654-.086 1.235-.256 1.743-.171.507-.42.936-.747 1.287a3.29 3.29 0 0 1-1.181.796c-.46.18-.979.27-1.558.27-.54 0-1.035-.09-1.486-.27a3.394 3.394 0 0 1-1.173-.796 3.65 3.65 0 0 1-.761-1.287c-.181-.508-.271-1.089-.271-1.743 0-.868.15-1.602.449-2.205a3.19 3.19 0 0 1 1.294-1.387c.559-.317 1.225-.476 1.999-.476.725 0 1.365.159 1.92.476.555.318.988.78 1.301 1.387.314.607.47 1.342.47 2.205Zm-5.711 0c0 .574.069 1.065.206 1.472.142.408.36.72.654.939.294.213.674.32 1.138.32.465 0 .844-.107 1.138-.32.294-.218.51-.531.647-.939.138-.407.206-.898.206-1.472s-.068-1.06-.206-1.458c-.137-.403-.353-.709-.647-.917-.294-.214-.675-.32-1.145-.32-.692 0-1.197.232-1.515.697-.317.464-.476 1.13-.476 1.998Zm11.671-4.068c.934 0 1.683.341 2.247 1.024.569.683.853 1.697.853 3.044 0 .891-.132 1.643-.398 2.255-.261.607-.628 1.066-1.102 1.38-.469.308-1.017.462-1.643.462-.398 0-.744-.052-1.038-.157a2.602 2.602 0 0 1-.755-.405 2.9 2.9 0 0 1-.526-.555h-.099c.024.19.045.4.064.633.024.227.035.436.035.626v3.207h-1.678V14.193h1.366l.234 1.088h.078c.147-.222.325-.429.534-.618.213-.19.469-.34.768-.448.304-.114.657-.171 1.06-.171Zm-.448 1.365c-.461 0-.83.093-1.11.278-.275.18-.476.453-.605.818-.123.365-.189.822-.199 1.372v.235c0 .583.06 1.079.178 1.487.123.402.325.71.605.924.284.209.668.313 1.152.313.408 0 .745-.111 1.01-.334.27-.223.471-.54.604-.953.133-.413.2-.899.2-1.458 0-.849-.153-1.508-.456-1.977-.298-.47-.758-.705-1.379-.705Zm10.774 4.41c0 .517-.125.953-.377 1.309-.251.355-.618.625-1.102.81-.479.18-1.067.27-1.764.27a7.26 7.26 0 0 1-1.422-.12 4.873 4.873 0 0 1-1.117-.356v-1.444c.375.176.795.328 1.259.456.469.128.913.192 1.33.192.55 0 .946-.086 1.188-.256a.822.822 0 0 0 .362-.697.736.736 0 0 0-.149-.456c-.095-.137-.275-.277-.54-.42a10.377 10.377 0 0 0-1.152-.526 9.642 9.642 0 0 1-1.26-.597 2.188 2.188 0 0 1-.774-.718c-.176-.285-.264-.647-.264-1.088 0-.697.275-1.226.825-1.586.555-.366 1.288-.548 2.198-.548.483 0 .938.05 1.365.15.432.094.854.234 1.266.419l-.526 1.259a7.905 7.905 0 0 0-1.074-.384 3.847 3.847 0 0 0-1.088-.157c-.431 0-.761.067-.989.2a.63.63 0 0 0-.334.568.7.7 0 0 0 .164.47c.109.128.296.256.561.384.27.128.645.287 1.125.476.468.18.874.37 1.215.57.346.194.612.433.797.718.185.284.277.652.277 1.102Z" fill="#E1E1E1"/><path d="M37.746 33.441V1.662" stroke="#363636"/></svg>