<svg width="194" height="35" viewBox="0 0 194 35" fill="none" xmlns="http://www.w3.org/2000/svg">
<path d="M187.353 1H6.64706C3.52827 1 1 3.52827 1 6.64706V27.9066C1 31.0254 3.52827 33.5536 6.64706 33.5536H187.353C190.472 33.5536 193 31.0254 193 27.9066V6.64706C193 3.52827 190.472 1 187.353 1Z" fill="#0A0A0A"/>
<path d="M187.353 1H6.64706C3.52827 1 1 3.52827 1 6.64706V27.9066C1 31.0254 3.52827 33.5536 6.64706 33.5536H187.353C190.472 33.5536 193 31.0254 193 27.9066V6.64706C193 3.52827 190.472 1 187.353 1Z" stroke="#494949"/>
<path d="M67.6467 15.7878C67.6467 16.963 67.4281 17.9455 66.9904 18.7353C66.5527 19.5203 65.9176 20.1126 65.0849 20.5123C64.2524 20.9072 63.2484 21.1046 62.0733 21.1046H59.1758V10.6708H62.3873C63.4673 10.6708 64.3998 10.8659 65.1848 11.256C65.9699 11.6414 66.5765 12.2147 67.0047 12.9759C67.4328 13.7324 67.6467 14.6697 67.6467 15.7878ZM65.8628 15.8378C65.8628 14.9814 65.7272 14.2772 65.456 13.7253C65.1896 13.1734 64.7947 12.7643 64.2714 12.4978C63.7528 12.2266 63.1128 12.091 62.3516 12.091H60.8886V19.6702H62.1018C63.3626 19.6702 64.3047 19.349 64.9279 18.7067C65.5512 18.0644 65.8628 17.1081 65.8628 15.8378ZM72.8712 13.0545C73.5755 13.0545 74.1794 13.1996 74.6836 13.4898C75.1878 13.78 75.5758 14.1916 75.8469 14.7245C76.118 15.2573 76.2541 15.8949 76.2541 16.6371V17.5363H70.9798C70.9991 18.3023 71.2037 18.8923 71.5937 19.3062C71.9883 19.7201 72.5404 19.9271 73.2493 19.9271C73.7535 19.9271 74.2059 19.8795 74.6052 19.7844C75.0098 19.6844 75.4257 19.5393 75.8542 19.349V20.7121C75.4596 20.8977 75.057 21.0333 74.6484 21.1189C74.2391 21.2046 73.7488 21.2473 73.1782 21.2473C72.4022 21.2473 71.7199 21.0975 71.1299 20.7978C70.5446 20.4933 70.0856 20.0413 69.7521 19.4418C69.4239 18.8423 69.2598 18.0977 69.2598 17.208C69.2598 16.323 69.4099 15.5713 69.7095 14.9528C70.0092 14.3343 70.4304 13.8633 70.9725 13.5398C71.5153 13.2162 72.1477 13.0545 72.8712 13.0545ZM72.8712 14.3177C72.3431 14.3177 71.9145 14.4889 71.5864 14.8315C71.2628 15.174 71.0728 15.676 71.0157 16.3373H74.6125C74.6079 15.9424 74.5408 15.5928 74.4125 15.2882C74.289 14.9838 74.0983 14.7459 73.8419 14.5746C73.5894 14.4033 73.2659 14.3177 72.8712 14.3177ZM82.1988 13.0545C83.1363 13.0545 83.8876 13.397 84.4537 14.0822C85.025 14.7672 85.31 15.7854 85.31 17.1366C85.31 18.0311 85.1772 18.7852 84.9108 19.399C84.649 20.008 84.2803 20.4694 83.8046 20.7835C83.3336 21.0928 82.7841 21.2473 82.1557 21.2473C81.7564 21.2473 81.4089 21.1951 81.1139 21.0904C80.819 20.9857 80.5665 20.8501 80.3572 20.6836C80.148 20.5123 79.9719 20.3267 79.8291 20.1269H79.7294C79.7533 20.3172 79.7746 20.529 79.7939 20.7621C79.8171 20.9904 79.8291 21.1998 79.8291 21.3901V24.6087H78.1449V13.2043H79.5155L79.7507 14.2963H79.8291C79.9766 14.0727 80.1553 13.8656 80.3645 13.6754C80.5785 13.485 80.8356 13.3352 81.1352 13.2257C81.4401 13.1116 81.7942 13.0545 82.1988 13.0545ZM81.7491 14.4247C81.2873 14.4247 80.9166 14.5175 80.6356 14.7031C80.3599 14.8838 80.1579 15.1574 80.029 15.5238C79.9055 15.8901 79.839 16.3492 79.8291 16.9012V17.1366C79.8291 17.7219 79.8889 18.2191 80.0078 18.6282C80.1314 19.0326 80.334 19.3419 80.6143 19.556C80.9 19.7653 81.2853 19.87 81.7703 19.87C82.1796 19.87 82.5177 19.7582 82.7841 19.5346C83.0552 19.3109 83.2572 18.9922 83.3907 18.5783C83.5236 18.1643 83.5907 17.6767 83.5907 17.1152C83.5907 16.2636 83.4379 15.6023 83.1336 15.1312C82.834 14.6602 82.3722 14.4247 81.7491 14.4247ZM88.9354 21.1046H87.2513V10H88.9354V21.1046ZM98.3275 17.1366C98.3275 17.7932 98.2418 18.376 98.0704 18.8851C97.8997 19.3942 97.6499 19.8248 97.321 20.1769C96.9928 20.5242 96.5982 20.7906 96.1364 20.9762C95.6754 21.157 95.1539 21.2473 94.5739 21.2473C94.0311 21.2473 93.5341 21.157 93.0824 20.9762C92.63 20.7906 92.2373 20.5242 91.9045 20.1769C91.5763 19.8248 91.3218 19.3942 91.1411 18.8851C90.9604 18.376 90.8701 17.7932 90.8701 17.1366C90.8701 16.266 91.0196 15.5285 91.3192 14.9243C91.6241 14.3153 92.0566 13.8514 92.618 13.5326C93.1794 13.2138 93.8484 13.0545 94.6237 13.0545C95.3518 13.0545 95.9936 13.2138 96.5503 13.5326C97.1071 13.8514 97.5422 14.3153 97.8565 14.9243C98.1707 15.5333 98.3275 16.2708 98.3275 17.1366ZM92.5967 17.1366C92.5967 17.7124 92.6658 18.2048 92.804 18.614C92.9468 19.0231 93.1654 19.3371 93.4604 19.556C93.7554 19.7701 94.1361 19.8771 94.6024 19.8771C95.0688 19.8771 95.4488 19.7701 95.7438 19.556C96.0388 19.3371 96.2554 19.0231 96.3935 18.614C96.5317 18.2048 96.6008 17.7124 96.6008 17.1366C96.6008 16.561 96.5317 16.0733 96.3935 15.6736C96.2554 15.2692 96.0388 14.9624 95.7438 14.753C95.4488 14.5389 95.0662 14.4319 94.5951 14.4319C93.9002 14.4319 93.394 14.665 93.0751 15.1312C92.7562 15.5975 92.5967 16.266 92.5967 17.1366ZM99.063 13.2043H100.89L102.51 17.7147C102.581 17.9193 102.645 18.1215 102.702 18.3213C102.764 18.5164 102.817 18.7091 102.859 18.8994C102.907 19.0897 102.945 19.28 102.973 19.4703H103.017C103.064 19.2229 103.131 18.947 103.217 18.6425C103.307 18.3333 103.407 18.024 103.516 17.7147L105.072 13.2043H106.877L103.488 22.1894C103.292 22.7032 103.052 23.141 102.767 23.5026C102.486 23.8689 102.153 24.1449 101.768 24.3304C101.382 24.5207 100.942 24.6159 100.447 24.6159C100.209 24.6159 100.002 24.6016 99.8263 24.5731C99.6502 24.5493 99.5001 24.5231 99.3765 24.4945V23.1529C99.4768 23.1766 99.6024 23.198 99.7552 23.2171C99.9074 23.2361 100.064 23.2457 100.226 23.2457C100.526 23.2457 100.785 23.1861 101.004 23.0672C101.223 22.9483 101.408 22.7794 101.56 22.5605C101.713 22.3464 101.839 22.1014 101.939 21.8255L102.217 21.0833L99.063 13.2043ZM118.867 17.1366C118.867 17.7932 118.781 18.376 118.61 18.8851C118.439 19.3942 118.189 19.8248 117.861 20.1769C117.532 20.5242 117.138 20.7906 116.676 20.9762C116.215 21.157 115.693 21.2473 115.113 21.2473C114.57 21.2473 114.073 21.157 113.622 20.9762C113.169 20.7906 112.777 20.5242 112.444 20.1769C112.116 19.8248 111.861 19.3942 111.68 18.8851C111.5 18.376 111.409 17.7932 111.409 17.1366C111.409 16.266 111.559 15.5285 111.859 14.9243C112.163 14.3153 112.596 13.8514 113.157 13.5326C113.719 13.2138 114.388 13.0545 115.163 13.0545C115.891 13.0545 116.533 13.2138 117.09 13.5326C117.646 13.8514 118.082 14.3153 118.396 14.9243C118.71 15.5333 118.867 16.2708 118.867 17.1366ZM113.136 17.1366C113.136 17.7124 113.205 18.2048 113.343 18.614C113.486 19.0231 113.705 19.3371 114 19.556C114.295 19.7701 114.675 19.8771 115.142 19.8771C115.608 19.8771 115.988 19.7701 116.283 19.556C116.578 19.3371 116.795 19.0231 116.933 18.614C117.071 18.2048 117.14 17.7124 117.14 17.1366C117.14 16.561 117.071 16.0733 116.933 15.6736C116.795 15.2692 116.578 14.9624 116.283 14.753C115.988 14.5389 115.606 14.4319 115.134 14.4319C114.44 14.4319 113.933 14.665 113.614 15.1312C113.296 15.5975 113.136 16.266 113.136 17.1366ZM124.912 13.0545C125.801 13.0545 126.494 13.2852 126.989 13.7467C127.488 14.2035 127.738 14.9386 127.738 15.9519V21.1046H126.061V16.266C126.061 15.6522 125.935 15.1931 125.683 14.8886C125.43 14.5794 125.04 14.4247 124.512 14.4247C123.746 14.4247 123.213 14.6602 122.913 15.1312C122.618 15.6023 122.471 16.285 122.471 17.1795V21.1046H120.794V13.2043H122.1L122.335 14.2748H122.428C122.599 13.9989 122.811 13.7729 123.064 13.5968C123.32 13.4161 123.606 13.2805 123.92 13.1901C124.238 13.0996 124.569 13.0545 124.912 13.0545ZM140.641 21.1046H133.141V19.9271L138.45 12.1267H133.305V10.6708H140.498V11.8412L135.189 19.6488H140.641V21.1046ZM145.451 13.0545C146.155 13.0545 146.759 13.1996 147.264 13.4898C147.768 13.78 148.156 14.1916 148.427 14.7245C148.698 15.2573 148.834 15.8949 148.834 16.6371V17.5363H143.56C143.579 18.3023 143.784 18.8923 144.174 19.3062C144.568 19.7201 145.12 19.9271 145.829 19.9271C146.333 19.9271 146.786 19.8795 147.185 19.7844C147.59 19.6844 148.006 19.5393 148.434 19.349V20.7121C148.04 20.8977 147.637 21.0333 147.228 21.1189C146.819 21.2046 146.329 21.2473 145.758 21.2473C144.982 21.2473 144.3 21.0975 143.71 20.7978C143.125 20.4933 142.666 20.0413 142.332 19.4418C142.004 18.8423 141.84 18.0977 141.84 17.208C141.84 16.323 141.99 15.5713 142.29 14.9528C142.589 14.3343 143.01 13.8633 143.552 13.5398C144.095 13.2162 144.728 13.0545 145.451 13.0545ZM145.451 14.3177C144.923 14.3177 144.495 14.4889 144.166 14.8315C143.843 15.174 143.653 15.676 143.596 16.3373H147.193C147.188 15.9424 147.121 15.5928 146.993 15.2882C146.869 14.9838 146.678 14.7459 146.422 14.5746C146.169 14.4033 145.846 14.3177 145.451 14.3177ZM154.729 13.0545C154.862 13.0545 155.007 13.0616 155.164 13.0759C155.321 13.0901 155.456 13.1092 155.571 13.133L155.414 14.7031C155.314 14.6745 155.19 14.6531 155.043 14.6388C154.9 14.6245 154.772 14.6174 154.657 14.6174C154.358 14.6174 154.072 14.6673 153.801 14.7672C153.53 14.8624 153.289 15.0099 153.08 15.2098C152.871 15.4048 152.707 15.6498 152.588 15.9448C152.469 16.2398 152.409 16.5823 152.409 16.9725V21.1046H150.725V13.2043H152.038L152.267 14.596H152.345C152.502 14.3153 152.697 14.0584 152.931 13.8253C153.164 13.5921 153.43 13.4066 153.73 13.2686C154.034 13.1258 154.367 13.0545 154.729 13.0545ZM164.028 17.1366C164.028 17.7932 163.942 18.376 163.771 18.8851C163.6 19.3942 163.35 19.8248 163.022 20.1769C162.693 20.5242 162.299 20.7906 161.837 20.9762C161.375 21.157 160.854 21.2473 160.274 21.2473C159.732 21.2473 159.235 21.157 158.782 20.9762C158.33 20.7906 157.938 20.5242 157.605 20.1769C157.277 19.8248 157.022 19.3942 156.841 18.8851C156.66 18.376 156.57 17.7932 156.57 17.1366C156.57 16.266 156.72 15.5285 157.02 14.9243C157.324 14.3153 157.757 13.8514 158.319 13.5326C158.88 13.2138 159.548 13.0545 160.324 13.0545C161.052 13.0545 161.694 13.2138 162.251 13.5326C162.808 13.8514 163.243 14.3153 163.557 14.9243C163.871 15.5333 164.028 16.2708 164.028 17.1366ZM158.297 17.1366C158.297 17.7124 158.366 18.2048 158.504 18.614C158.647 19.0231 158.866 19.3371 159.161 19.556C159.456 19.7701 159.836 19.8771 160.302 19.8771C160.769 19.8771 161.149 19.7701 161.444 19.556C161.739 19.3371 161.956 19.0231 162.094 18.614C162.232 18.2048 162.301 17.7124 162.301 17.1366C162.301 16.561 162.232 16.0733 162.094 15.6736C161.956 15.2692 161.739 14.9624 161.444 14.753C161.149 14.5389 160.767 14.4319 160.296 14.4319C159.601 14.4319 159.094 14.665 158.775 15.1312C158.457 15.5975 158.297 16.266 158.297 17.1366ZM170.009 13.0545C170.945 13.0545 171.697 13.397 172.263 14.0822C172.835 14.7672 173.12 15.7854 173.12 17.1366C173.12 18.0311 172.987 18.7852 172.721 19.399C172.459 20.008 172.09 20.4694 171.614 20.7835C171.143 21.0928 170.594 21.2473 169.965 21.2473C169.566 21.2473 169.219 21.1951 168.924 21.0904C168.629 20.9857 168.376 20.8501 168.167 20.6836C167.958 20.5123 167.782 20.3267 167.639 20.1269H167.539C167.563 20.3172 167.584 20.529 167.604 20.7621C167.627 20.9904 167.639 21.1998 167.639 21.3901V24.6087H165.955V13.2043H167.325L167.56 14.2963H167.639C167.786 14.0727 167.965 13.8656 168.174 13.6754C168.388 13.485 168.645 13.3352 168.945 13.2257C169.249 13.1116 169.604 13.0545 170.009 13.0545ZM169.559 14.4247C169.097 14.4247 168.726 14.5175 168.445 14.7031C168.17 14.8838 167.967 15.1574 167.839 15.5238C167.715 15.8901 167.649 16.3492 167.639 16.9012V17.1366C167.639 17.7219 167.699 18.2191 167.818 18.6282C167.941 19.0326 168.143 19.3419 168.424 19.556C168.71 19.7653 169.095 19.87 169.58 19.87C169.989 19.87 170.327 19.7582 170.594 19.5346C170.865 19.3109 171.067 18.9922 171.2 18.5783C171.333 18.1643 171.4 17.6767 171.4 17.1152C171.4 16.2636 171.248 15.6023 170.943 15.1312C170.644 14.6602 170.182 14.4247 169.559 14.4247ZM180.371 18.8495C180.371 19.3681 180.245 19.8058 179.993 20.1626C179.74 20.5194 179.371 20.7906 178.886 20.9762C178.406 21.157 177.816 21.2473 177.117 21.2473C176.565 21.2473 176.089 21.207 175.689 21.126C175.294 21.0499 174.921 20.931 174.569 20.7692V19.3205C174.945 19.4965 175.365 19.6488 175.832 19.7773C176.303 19.9057 176.748 19.9699 177.166 19.9699C177.719 19.9699 178.116 19.8843 178.358 19.713C178.601 19.537 178.722 19.3038 178.722 19.0136C178.722 18.8423 178.673 18.6901 178.572 18.5568C178.477 18.4189 178.297 18.2785 178.03 18.1358C177.768 17.9883 177.383 17.8123 176.874 17.6077C176.375 17.4078 175.953 17.208 175.611 17.0082C175.268 16.8084 175.009 16.5681 174.833 16.2874C174.656 16.0019 174.569 15.638 174.569 15.1955C174.569 14.4961 174.844 13.9656 175.397 13.604C175.953 13.2376 176.688 13.0545 177.602 13.0545C178.087 13.0545 178.544 13.1044 178.972 13.2043C179.405 13.2995 179.829 13.4399 180.242 13.6254L179.714 14.8886C179.357 14.7316 178.998 14.6031 178.637 14.5032C178.28 14.3985 177.916 14.3462 177.544 14.3462C177.112 14.3462 176.781 14.4128 176.553 14.546C176.329 14.6793 176.217 14.8696 176.217 15.117C176.217 15.3025 176.272 15.4595 176.381 15.588C176.491 15.7164 176.679 15.8449 176.945 15.9734C177.216 16.1018 177.592 16.2612 178.073 16.4515C178.544 16.6323 178.951 16.8226 179.293 17.0225C179.641 17.2175 179.907 17.4578 180.092 17.7432C180.278 18.0287 180.371 18.3974 180.371 18.8495Z" fill="#E1E1E1"/>
<path d="M45.5117 33.2213V1.33203" stroke="#494949"/>
<path d="M22.6985 8.72861L16.8181 10.9761C16.5617 11.0766 16.3416 11.2522 16.1865 11.4798C16.0315 11.7075 15.9488 11.9766 15.9492 12.252V17.9101L18.6516 16.357V13.1756L23.1808 11.4379V8.63965C23.016 8.63998 22.8526 8.67014 22.6985 8.72861Z" fill="#E1E1E1"/>
<path d="M18.6995 21.3988L23.1808 18.8161V15.6963L16.2571 19.6884C16.1639 19.743 16.0865 19.8209 16.0325 19.9144C15.9785 20.008 15.9498 20.114 15.9492 20.222V22.3121C15.9515 22.5852 16.0355 22.8514 16.1904 23.0763C16.3452 23.3013 16.5638 23.4747 16.8181 23.5744L22.6985 25.8219C22.8526 25.8803 23.016 25.9105 23.1808 25.9108V23.1126L18.6995 21.3988Z" fill="#E1E1E1"/>
<path d="M30.124 14.8074C30.2123 14.7567 30.2855 14.6835 30.3361 14.595C30.3866 14.5067 30.4126 14.4064 30.4113 14.3045V12.252C30.4117 11.9766 30.329 11.7075 30.174 11.4798C30.0189 11.2522 29.7988 11.0766 29.5424 10.9761L23.6586 8.72861C23.5056 8.67054 23.3434 8.64045 23.1797 8.63965V11.4379L27.6268 13.1483L23.1797 15.7105V18.8303L30.124 14.8074Z" fill="#E1E1E1"/>
<path d="M23.6586 25.8246L29.5424 23.5771C29.7967 23.4774 30.0153 23.304 30.1701 23.079C30.325 22.854 30.409 22.5879 30.4113 22.3149V16.5986L27.7089 18.1585V21.3843L23.1797 23.1153V25.9136C23.3434 25.9128 23.5056 25.8827 23.6586 25.8246Z" fill="#E1E1E1"/>
</svg>
