<svg width="219" height="50" fill="none" xmlns="http://www.w3.org/2000/svg"><rect x=".5" y=".5" width="218" height="49" rx="8.5" fill="#F0F2F5"/><rect x=".5" y=".5" width="218" height="49" rx="8.5" stroke="#BDC4CA"/><path d="M73.547 25.18c0 1.286-.24 2.362-.719 3.226a4.607 4.607 0 0 1-2.086 1.946c-.911.432-2.01.648-3.297.648h-3.172V19.578h3.516c1.182 0 2.203.214 3.063.64a4.52 4.52 0 0 1 1.992 1.884c.469.828.703 1.854.703 3.078Zm-1.953.054c0-.937-.149-1.708-.446-2.312a2.85 2.85 0 0 0-1.296-1.344c-.568-.297-1.269-.445-2.102-.445h-1.602v8.297h1.329c1.38 0 2.411-.352 3.093-1.055.683-.703 1.024-1.75 1.024-3.14Zm7.672-3.047c.77 0 1.432.16 1.984.477.552.318.977.768 1.273 1.352.297.583.446 1.28.446 2.093v.985h-5.774c.021.838.245 1.484.672 1.937.432.453 1.037.68 1.813.68.552 0 1.047-.052 1.484-.156.443-.11.898-.268 1.367-.477v1.492a5.973 5.973 0 0 1-1.32.446c-.448.093-.984.14-1.61.14-.848 0-1.596-.164-2.242-.492a3.6 3.6 0 0 1-1.507-1.484c-.36-.657-.54-1.472-.54-2.446 0-.968.165-1.791.493-2.468.328-.677.789-1.193 1.382-1.547.594-.354 1.287-.532 2.079-.532Zm0 1.383c-.579 0-1.047.188-1.407.563-.354.375-.562.924-.625 1.648h3.938a3.027 3.027 0 0 0-.219-1.148 1.665 1.665 0 0 0-.625-.781c-.276-.188-.63-.282-1.062-.282Zm10.21-1.383c1.027 0 1.85.375 2.47 1.125.624.75.937 1.865.937 3.344 0 .98-.146 1.805-.438 2.477-.286.666-.69 1.172-1.21 1.515-.516.339-1.118.508-1.805.508-.438 0-.818-.057-1.14-.172a2.848 2.848 0 0 1-.83-.445 3.178 3.178 0 0 1-.577-.61h-.11c.026.209.05.44.07.696.027.25.04.48.04.688v3.523h-1.844V22.352h1.5l.258 1.195h.086c.161-.245.357-.471.586-.68.234-.208.515-.372.844-.492a3.307 3.307 0 0 1 1.164-.188Zm-.492 1.5c-.505 0-.911.102-1.218.305-.303.198-.524.498-.664.899-.136.4-.209.903-.22 1.507v.258c0 .64.066 1.185.196 1.633.135.443.357.781.664 1.016.313.229.735.343 1.266.343.448 0 .818-.122 1.11-.367.296-.244.517-.593.663-1.047.146-.453.219-.987.219-1.601 0-.932-.167-1.656-.5-2.172-.328-.516-.833-.773-1.516-.773ZM96.852 31h-1.844V18.844h1.844V31Zm10.281-4.344c0 .719-.094 1.357-.281 1.914a3.833 3.833 0 0 1-.821 1.414c-.359.38-.791.672-1.297.875-.505.198-1.075.297-1.711.297a4.354 4.354 0 0 1-1.632-.297 3.718 3.718 0 0 1-1.289-.875 4.005 4.005 0 0 1-.836-1.414c-.198-.557-.297-1.195-.297-1.914 0-.953.164-1.76.492-2.422a3.504 3.504 0 0 1 1.422-1.523c.614-.349 1.346-.523 2.195-.523.797 0 1.5.174 2.11.523.609.349 1.085.857 1.429 1.523.344.667.516 1.474.516 2.422Zm-6.274 0c0 .63.076 1.17.227 1.617.156.448.396.792.719 1.032.323.234.739.351 1.25.351.51 0 .927-.117 1.25-.351.323-.24.56-.584.711-1.032.151-.447.226-.986.226-1.617 0-.63-.075-1.164-.226-1.601-.151-.443-.388-.779-.711-1.008-.323-.235-.743-.352-1.258-.352-.761 0-1.315.256-1.664.766s-.524 1.242-.524 2.195Zm7.079-4.304h2l1.773 4.937c.078.224.148.445.211.664.068.214.125.425.172.633.052.208.094.417.125.625h.047c.052-.27.125-.573.218-.906.099-.339.209-.677.328-1.016l1.704-4.937h1.976l-3.711 9.835a5.36 5.36 0 0 1-.789 1.438 3.02 3.02 0 0 1-1.094.906c-.421.209-.903.313-1.445.313-.26 0-.487-.016-.68-.047a5.597 5.597 0 0 1-.492-.086v-1.469a4.172 4.172 0 0 0 .93.102c.328 0 .612-.065.851-.196.24-.13.443-.315.61-.554.167-.235.305-.503.414-.805l.305-.812-3.453-8.625Zm21.679 4.304c0 .719-.094 1.357-.281 1.914a3.845 3.845 0 0 1-.82 1.414c-.36.38-.792.672-1.297.875-.505.198-1.076.297-1.711.297a4.36 4.36 0 0 1-1.633-.297 3.728 3.728 0 0 1-1.289-.875 4.018 4.018 0 0 1-.836-1.414c-.198-.557-.297-1.195-.297-1.914 0-.953.164-1.76.492-2.422a3.513 3.513 0 0 1 1.422-1.523c.615-.349 1.347-.523 2.195-.523.797 0 1.5.174 2.11.523.609.349 1.086.857 1.43 1.523.343.667.515 1.474.515 2.422Zm-6.273 0c0 .63.075 1.17.226 1.617.157.448.396.792.719 1.032.323.234.74.351 1.25.351s.927-.117 1.25-.351c.323-.24.56-.584.711-1.032.151-.447.227-.986.227-1.617 0-.63-.076-1.164-.227-1.601-.151-.443-.388-.779-.711-1.008-.323-.235-.742-.352-1.258-.352-.76 0-1.315.256-1.664.766s-.523 1.242-.523 2.195Zm12.89-4.468c.974 0 1.732.252 2.274.757.547.5.82 1.305.82 2.414V31h-1.836v-5.297c0-.672-.138-1.174-.414-1.508-.276-.338-.703-.508-1.281-.508-.839 0-1.422.258-1.75.774-.323.516-.485 1.263-.485 2.242V31h-1.835v-8.648h1.429l.258 1.171h.102c.187-.302.419-.549.695-.742.281-.198.594-.346.937-.445a3.964 3.964 0 0 1 1.086-.148ZM153.453 31h-8.211v-1.29l5.813-8.538h-5.633v-1.594h7.875v1.281l-5.813 8.547h5.969V31Zm5.266-8.813c.771 0 1.432.16 1.984.477.552.318.977.768 1.274 1.352.296.583.445 1.28.445 2.093v.985h-5.774c.021.838.245 1.484.672 1.937.433.453 1.037.68 1.813.68.552 0 1.047-.052 1.484-.156.443-.11.899-.268 1.367-.477v1.492a5.967 5.967 0 0 1-1.32.446 7.96 7.96 0 0 1-1.609.14c-.849 0-1.597-.164-2.243-.492a3.6 3.6 0 0 1-1.507-1.484c-.36-.657-.539-1.472-.539-2.446 0-.968.164-1.791.492-2.468.328-.677.789-1.193 1.383-1.547.593-.354 1.286-.532 2.078-.532Zm0 1.383c-.578 0-1.047.188-1.407.563-.354.375-.562.924-.624 1.648h3.937a3.017 3.017 0 0 0-.219-1.148 1.665 1.665 0 0 0-.625-.781c-.276-.188-.63-.282-1.062-.282Zm10.156-1.383a5.307 5.307 0 0 1 .922.086l-.172 1.72a2.311 2.311 0 0 0-.406-.071 4.273 4.273 0 0 0-.422-.024c-.328 0-.641.055-.938.165a2.209 2.209 0 0 0-1.328 1.29c-.13.321-.195.696-.195 1.124V31h-1.844v-8.648h1.438l.25 1.523h.086a3.85 3.85 0 0 1 .64-.844c.255-.255.547-.458.875-.61a2.547 2.547 0 0 1 1.094-.233Zm10.18 4.47c0 .718-.094 1.356-.282 1.913a3.83 3.83 0 0 1-.82 1.414c-.359.38-.792.672-1.297.875-.505.198-1.075.297-1.711.297a4.363 4.363 0 0 1-1.633-.297 3.737 3.737 0 0 1-1.289-.875 4.001 4.001 0 0 1-.835-1.414c-.198-.557-.297-1.195-.297-1.914 0-.953.164-1.76.492-2.422a3.502 3.502 0 0 1 1.422-1.523c.614-.349 1.346-.523 2.195-.523.797 0 1.5.174 2.109.523.61.349 1.086.857 1.43 1.523.344.667.516 1.474.516 2.422Zm-6.274 0c0 .63.076 1.169.227 1.616.156.448.396.792.719 1.032.322.234.739.351 1.25.351.51 0 .927-.117 1.25-.351.322-.24.559-.584.711-1.032.151-.447.226-.986.226-1.617 0-.63-.075-1.164-.226-1.601-.152-.443-.389-.779-.711-1.008-.323-.235-.743-.352-1.258-.352-.761 0-1.315.256-1.664.766s-.524 1.242-.524 2.195Zm12.821-4.47c1.026 0 1.849.375 2.468 1.125.625.75.938 1.865.938 3.344 0 .98-.146 1.805-.438 2.477-.286.666-.69 1.172-1.211 1.515-.515.339-1.117.508-1.804.508-.438 0-.818-.057-1.141-.172a2.844 2.844 0 0 1-.828-.445 3.171 3.171 0 0 1-.578-.61h-.11c.026.209.05.44.071.696.026.25.039.48.039.688v3.523h-1.844V22.352h1.5l.258 1.195h.086c.161-.245.357-.471.586-.68.234-.208.515-.372.844-.492a3.305 3.305 0 0 1 1.164-.188Zm-.493 1.5c-.505 0-.911.102-1.218.305-.302.198-.524.498-.664.899-.136.4-.209.903-.219 1.507v.258c0 .64.065 1.185.195 1.633.136.443.357.781.664 1.016.313.229.735.343 1.266.343.448 0 .818-.122 1.109-.367.297-.244.518-.593.664-1.047.146-.453.219-.987.219-1.601 0-.932-.167-1.656-.5-2.172-.328-.516-.833-.773-1.516-.773Zm11.836 4.844c0 .568-.138 1.047-.414 1.438-.276.39-.679.687-1.211.89-.526.198-1.172.297-1.937.297a7.989 7.989 0 0 1-1.563-.133 5.344 5.344 0 0 1-1.226-.39v-1.586c.411.193.872.36 1.383.5.515.14 1.002.21 1.461.21.604 0 1.039-.093 1.304-.28a.901.901 0 0 0 .399-.766.814.814 0 0 0-.164-.5c-.105-.151-.303-.305-.594-.461a11.418 11.418 0 0 0-1.266-.578 10.546 10.546 0 0 1-1.383-.656c-.375-.22-.658-.482-.851-.79-.193-.312-.289-.71-.289-1.195 0-.765.302-1.346.906-1.742.609-.401 1.414-.602 2.414-.602a6.59 6.59 0 0 1 1.5.165c.474.104.938.257 1.391.46l-.578 1.383a8.658 8.658 0 0 0-1.18-.422 4.23 4.23 0 0 0-1.195-.171c-.474 0-.836.072-1.086.218-.245.146-.368.354-.368.625 0 .203.06.375.18.516.12.14.326.281.617.422.297.14.709.315 1.235.523a9.27 9.27 0 0 1 1.336.625c.38.214.672.477.875.79.203.312.304.715.304 1.21Z" fill="#54AEA3"/><path d="m31.16 12.134-8.852 3.383A2.06 2.06 0 0 0 21 17.437v8.517l4.068-2.338v-4.788l6.817-2.616V12c-.248 0-.494.046-.726.134ZM25.14 31.204l6.745-3.888V22.62L21.463 28.63a.937.937 0 0 0-.463.803v3.146a2.06 2.06 0 0 0 1.308 1.9l8.851 3.383c.232.088.478.134.726.134v-4.212l-6.745-2.58Z" fill="#68BAB2"/><path d="M42.34 21.284a.86.86 0 0 0 .432-.757v-3.09a2.06 2.06 0 0 0-1.308-1.92l-8.856-3.383a2.06 2.06 0 0 0-.721-.134v4.212l6.694 2.574-6.694 3.857v4.696l10.452-6.055ZM32.608 37.865l8.856-3.382a2.06 2.06 0 0 0 1.308-1.9v-8.604l-4.068 2.348v4.855l-6.817 2.605V38a2.06 2.06 0 0 0 .72-.134Z" fill="#54AEA3"/></svg>