<svg width="194" height="35" fill="none" xmlns="http://www.w3.org/2000/svg"><path d="M187.353 1H6.647A5.647 5.647 0 0 0 1 6.647v21.26a5.647 5.647 0 0 0 5.647 5.647h180.706A5.647 5.647 0 0 0 193 27.907V6.647A5.647 5.647 0 0 0 187.353 1Z" fill="#0A0A0A"/><path d="M187.353 1H6.647A5.647 5.647 0 0 0 1 6.647v21.26a5.647 5.647 0 0 0 5.647 5.647h180.706A5.647 5.647 0 0 0 193 27.907V6.647A5.647 5.647 0 0 0 187.353 1Z" stroke="#494949"/><path d="M67.647 15.788c0 1.175-.219 2.157-.657 2.947a4.209 4.209 0 0 1-1.905 1.777c-.833.395-1.837.593-3.012.593h-2.897V10.67h3.211c1.08 0 2.013.195 2.798.585a4.13 4.13 0 0 1 1.82 1.72c.428.756.642 1.694.642 2.812Zm-1.784.05c0-.857-.136-1.56-.407-2.113a2.604 2.604 0 0 0-1.185-1.227c-.518-.271-1.158-.407-1.92-.407H60.89v7.58h1.213c1.26 0 2.203-.322 2.826-.964.623-.643.935-1.599.935-2.87Zm7.008-2.783c.705 0 1.308.145 1.813.435.504.29.892.702 1.163 1.235.271.532.407 1.17.407 1.912v.9H70.98c.02.765.224 1.355.614 1.77.394.413.946.62 1.655.62.505 0 .957-.047 1.356-.143.405-.1.82-.245 1.25-.435v1.363a5.458 5.458 0 0 1-1.207.407c-.409.086-.9.128-1.47.128-.776 0-1.458-.15-2.048-.45a3.292 3.292 0 0 1-1.378-1.355c-.328-.6-.492-1.344-.492-2.234 0-.885.15-1.637.45-2.255.3-.619.72-1.09 1.263-1.413.542-.324 1.175-.485 1.898-.485Zm0 1.263c-.528 0-.956.17-1.285.514-.323.342-.513.844-.57 1.505h3.596a2.767 2.767 0 0 0-.2-1.049 1.523 1.523 0 0 0-.57-.713c-.253-.172-.576-.257-.97-.257Zm9.328-1.263c.937 0 1.689.342 2.255 1.027.571.685.856 1.703.856 3.055 0 .894-.133 1.648-.4 2.262-.261.609-.63 1.07-1.105 1.384-.471.31-1.02.464-1.65.464-.399 0-.746-.052-1.041-.157a2.604 2.604 0 0 1-.757-.406 2.906 2.906 0 0 1-.528-.557h-.1c.024.19.046.402.065.635.023.228.035.438.035.628v3.219h-1.684V13.204h1.37l.236 1.092h.078c.148-.223.326-.43.536-.62.214-.191.47-.34.77-.45a3.025 3.025 0 0 1 1.064-.171Zm-.45 1.37c-.462 0-.832.092-1.113.278-.276.18-.478.454-.607.82-.123.367-.19.826-.2 1.378v.236c0 .585.06 1.082.179 1.491.123.405.326.714.606.928.286.21.671.314 1.156.314.41 0 .748-.112 1.014-.335.271-.224.473-.543.607-.957.133-.414.2-.901.2-1.463 0-.851-.153-1.513-.457-1.984-.3-.47-.762-.706-1.385-.706Zm7.186 6.68h-1.684V10h1.684v11.105Zm9.392-3.968c0 .656-.085 1.239-.257 1.748-.17.51-.42.94-.749 1.292a3.3 3.3 0 0 1-1.185.8c-.46.18-.982.27-1.562.27-.543 0-1.04-.09-1.492-.27a3.399 3.399 0 0 1-1.177-.8 3.664 3.664 0 0 1-.764-1.292c-.18-.509-.27-1.092-.27-1.748 0-.871.149-1.609.448-2.213a3.205 3.205 0 0 1 1.299-1.391c.561-.32 1.23-.478 2.006-.478.728 0 1.37.159 1.926.478.557.318.992.782 1.306 1.391.315.61.472 1.347.472 2.213Zm-5.73 0c0 .575.069 1.068.207 1.477.143.41.361.723.656.942.295.214.676.321 1.142.321.467 0 .847-.107 1.142-.321.295-.219.511-.533.65-.942.138-.41.207-.902.207-1.477 0-.576-.07-1.064-.207-1.463-.139-.405-.355-.712-.65-.921-.295-.214-.678-.321-1.149-.321-.695 0-1.201.233-1.52.7-.319.466-.478 1.134-.478 2.005Zm6.466-3.933h1.827l1.62 4.51c.071.205.135.408.192.607.062.195.115.388.157.578.048.19.086.381.114.571h.044a9.84 9.84 0 0 1 .2-.828c.09-.309.19-.618.299-.927l1.556-4.51h1.805l-3.389 8.984a4.964 4.964 0 0 1-.721 1.314 2.767 2.767 0 0 1-.999.827c-.386.19-.826.286-1.321.286a3.93 3.93 0 0 1-.62-.043 5.016 5.016 0 0 1-.45-.079v-1.341a3.794 3.794 0 0 0 .85.093c.299 0 .558-.06.777-.179.219-.119.404-.288.556-.506.153-.215.279-.46.379-.735l.278-.743-3.154-7.879Zm19.804 3.933c0 .656-.086 1.239-.257 1.748-.171.51-.421.94-.749 1.292a3.306 3.306 0 0 1-1.185.8c-.461.18-.983.27-1.563.27-.543 0-1.04-.09-1.491-.27a3.395 3.395 0 0 1-1.178-.8 3.672 3.672 0 0 1-.764-1.292c-.18-.509-.271-1.092-.271-1.748 0-.871.15-1.609.45-2.213a3.2 3.2 0 0 1 1.298-1.391c.562-.32 1.231-.478 2.006-.478.728 0 1.37.159 1.927.478.556.318.992.782 1.306 1.391.314.61.471 1.347.471 2.213Zm-5.731 0c0 .575.069 1.068.207 1.477.143.41.362.723.657.942.295.214.675.321 1.142.321.466 0 .846-.107 1.141-.321.295-.219.512-.533.65-.942.138-.41.207-.902.207-1.477 0-.576-.069-1.064-.207-1.463-.138-.405-.355-.712-.65-.921-.295-.214-.677-.321-1.149-.321-.694 0-1.201.233-1.52.7-.318.466-.478 1.134-.478 2.005Zm11.776-4.082c.889 0 1.582.23 2.077.692.499.457.749 1.192.749 2.205v5.153h-1.677v-4.839c0-.614-.126-1.073-.378-1.377-.253-.31-.643-.464-1.171-.464-.766 0-1.299.235-1.599.706-.295.471-.442 1.154-.442 2.049v3.925h-1.677v-7.9h1.306l.235 1.07h.093c.171-.276.383-.502.636-.678.256-.18.542-.316.856-.407.318-.09.649-.135.992-.135Zm15.729 8.05h-7.5v-1.178l5.309-7.8h-5.145V10.67h7.193v1.17l-5.309 7.808h5.452v1.456Zm4.81-8.05c.704 0 1.308.145 1.813.435.504.29.892.702 1.163 1.235.271.532.407 1.17.407 1.912v.9h-5.274c.019.765.224 1.355.614 1.77.394.413.946.62 1.655.62.504 0 .957-.047 1.356-.143.405-.1.821-.245 1.249-.435v1.363a5.442 5.442 0 0 1-1.206.407 7.27 7.27 0 0 1-1.47.128c-.776 0-1.458-.15-2.048-.45a3.297 3.297 0 0 1-1.378-1.355c-.328-.6-.492-1.344-.492-2.234 0-.885.15-1.637.45-2.255.299-.619.72-1.09 1.262-1.413.543-.324 1.176-.485 1.899-.485Zm0 1.263c-.528 0-.956.17-1.285.514-.323.342-.513.844-.57 1.505h3.597a2.78 2.78 0 0 0-.2-1.049 1.53 1.53 0 0 0-.571-.713c-.253-.172-.576-.257-.971-.257Zm9.278-1.263a4.819 4.819 0 0 1 .842.078l-.157 1.57c-.1-.028-.224-.05-.371-.064a3.904 3.904 0 0 0-.386-.022c-.299 0-.585.05-.856.15a2.022 2.022 0 0 0-1.213 1.178 2.733 2.733 0 0 0-.179 1.027v4.133h-1.684v-7.9h1.313l.229 1.391h.078c.157-.28.352-.538.586-.77.233-.234.499-.42.799-.557a2.32 2.32 0 0 1 .999-.214Zm9.299 4.082c0 .656-.086 1.239-.257 1.748-.171.51-.421.94-.749 1.292a3.306 3.306 0 0 1-1.185.8 4.26 4.26 0 0 1-1.563.27c-.542 0-1.039-.09-1.492-.27a3.4 3.4 0 0 1-1.177-.8 3.672 3.672 0 0 1-.764-1.292c-.181-.509-.271-1.092-.271-1.748 0-.871.15-1.609.45-2.213a3.197 3.197 0 0 1 1.299-1.391c.561-.32 1.229-.478 2.005-.478.728 0 1.37.159 1.927.478a3.3 3.3 0 0 1 1.306 1.391c.314.61.471 1.347.471 2.213Zm-5.731 0c0 .575.069 1.068.207 1.477.143.41.362.723.657.942.295.214.675.321 1.141.321.467 0 .847-.107 1.142-.321.295-.219.512-.533.65-.942.138-.41.207-.902.207-1.477 0-.576-.069-1.064-.207-1.463-.138-.405-.355-.712-.65-.921-.295-.214-.677-.321-1.148-.321-.695 0-1.202.233-1.521.7-.318.466-.478 1.134-.478 2.005Zm11.712-4.082c.936 0 1.688.342 2.254 1.027.572.685.857 1.703.857 3.055 0 .894-.133 1.648-.399 2.262-.262.609-.631 1.07-1.107 1.384-.471.31-1.02.464-1.649.464-.399 0-.746-.052-1.041-.157a2.601 2.601 0 0 1-.757-.406 2.918 2.918 0 0 1-.528-.557h-.1c.024.19.045.402.065.635.023.228.035.438.035.628v3.219h-1.684V13.204h1.37l.235 1.092h.079c.147-.223.326-.43.535-.62.214-.191.471-.34.771-.45a3.023 3.023 0 0 1 1.064-.171Zm-.45 1.37c-.462 0-.833.092-1.114.278-.275.18-.478.454-.606.82-.124.367-.19.826-.2 1.378v.236c0 .585.06 1.082.179 1.491.123.405.325.714.606.928.286.21.671.314 1.156.314.409 0 .747-.112 1.014-.335.271-.224.473-.543.606-.957.133-.414.2-.901.2-1.463 0-.851-.152-1.513-.457-1.984-.299-.47-.761-.706-1.384-.706Zm10.812 4.424c0 .52-.126.957-.378 1.314-.253.356-.622.628-1.107.813-.48.181-1.07.271-1.769.271-.552 0-1.028-.04-1.428-.121a4.88 4.88 0 0 1-1.12-.357v-1.448c.376.175.796.328 1.263.456.471.129.916.193 1.334.193.553 0 .95-.086 1.192-.257a.823.823 0 0 0 .364-.7.735.735 0 0 0-.15-.456c-.095-.138-.275-.278-.542-.421a10.402 10.402 0 0 0-1.156-.528c-.499-.2-.921-.4-1.263-.6-.343-.2-.602-.44-.778-.72-.177-.286-.264-.65-.264-1.093 0-.699.275-1.23.828-1.591.556-.366 1.291-.55 2.205-.55.485 0 .942.05 1.37.15.433.095.857.236 1.27.421l-.528 1.264a7.924 7.924 0 0 0-1.077-.386 3.862 3.862 0 0 0-1.093-.157c-.432 0-.763.067-.991.2a.63.63 0 0 0-.336.571c0 .185.055.342.164.471.11.128.298.257.564.385.271.129.647.288 1.128.478.471.181.878.372 1.22.572.348.195.614.435.799.72.186.286.279.654.279 1.107Z" fill="#E1E1E1"/><path d="M45.512 33.221V1.332" stroke="#494949"/><path d="m22.698 8.729-5.88 2.247a1.369 1.369 0 0 0-.869 1.276v5.658l2.703-1.553v-3.181l4.529-1.738V8.64c-.165 0-.328.03-.483.089ZM18.7 21.399l4.48-2.583v-3.12l-6.923 3.992a.623.623 0 0 0-.308.534v2.09a1.368 1.368 0 0 0 .87 1.262l5.88 2.248c.154.058.317.088.482.089v-2.798l-4.482-1.714Z" fill="#E1E1E1"/><path d="M30.124 14.807a.573.573 0 0 0 .287-.502v-2.053a1.369 1.369 0 0 0-.869-1.276L23.66 8.73a1.368 1.368 0 0 0-.48-.09v2.799l4.448 1.71-4.447 2.563v3.12l6.944-4.024ZM23.659 25.825l5.883-2.248a1.368 1.368 0 0 0 .87-1.262v-5.716l-2.703 1.56v3.225l-4.53 1.731v2.799c.164-.001.327-.031.48-.09Z" fill="#E1E1E1"/></svg>