<svg width="193" height="34" fill="none"
    xmlns="http://www.w3.org/2000/svg">
    <path d="M186.71 1H6.628A5.628 5.628 0 0 0 1 6.628v21.186a5.628 5.628 0 0 0 5.628 5.627H186.71a5.628 5.628 0 0 0 5.628-5.627V6.628A5.628 5.628 0 0 0 186.71 1Z" fill="url(#a)"/>
    <path d="M186.71 1H6.628A5.628 5.628 0 0 0 1 6.628v21.186a5.628 5.628 0 0 0 5.628 5.627H186.71a5.628 5.628 0 0 0 5.628-5.627V6.628A5.628 5.628 0 0 0 186.71 1Z" stroke="#AE87FF" stroke-width=".5"/>
    <path d="M26.053 14.815a.57.57 0 0 0 .287-.5v-2.046a1.364 1.364 0 0 0-.866-1.272l-5.864-2.24a1.364 1.364 0 0 0-.477-.088v2.788l4.432 1.705-4.432 2.553v3.11l6.92-4.01ZM18.648 8.758l-5.86 2.24a1.364 1.364 0 0 0-.866 1.27v5.64l2.693-1.548v-3.17l4.514-1.732V8.668c-.165 0-.328.03-.481.089ZM19.61 25.794l5.864-2.24a1.364 1.364 0 0 0 .866-1.258V16.6l-2.694 1.554v3.215l-4.513 1.725v2.788c.163 0 .325-.03.477-.088ZM14.663 21.384l4.466-2.574v-3.109l-6.9 3.979a.62.62 0 0 0-.307.531v2.083a1.364 1.364 0 0 0 .866 1.258l5.86 2.24c.153.058.316.088.48.088v-2.788l-4.465-1.708ZM51.401 11.337c1.342 0 2.321.276 2.938.825.616.55.924 1.32.924 2.312 0 .45-.07.88-.213 1.287a2.732 2.732 0 0 1-.683 1.074c-.317.308-.737.552-1.258.733-.517.18-1.155.27-1.914.27h-1.11v3.897H48.38V11.337h3.023Zm-.113 1.416h-1.202v3.662h.931c.536 0 .991-.061 1.366-.184.375-.129.66-.33.853-.605.195-.275.292-.638.292-1.088 0-.602-.182-1.05-.548-1.344-.36-.294-.924-.441-1.692-.441Zm12.851 5.028c0 .654-.085 1.235-.256 1.742-.17.508-.42.937-.747 1.288-.327.346-.72.611-1.18.796-.46.18-.98.27-1.558.27-.54 0-1.036-.09-1.486-.27a3.392 3.392 0 0 1-1.174-.796 3.65 3.65 0 0 1-.76-1.288c-.18-.507-.27-1.088-.27-1.742 0-.868.148-1.603.447-2.205a3.191 3.191 0 0 1 1.295-1.387c.56-.317 1.225-.476 1.998-.476.725 0 1.366.159 1.92.476.555.318.989.78 1.302 1.387.313.607.47 1.342.47 2.205Zm-5.71 0c0 .574.068 1.064.206 1.472.142.408.36.72.654.939.294.213.673.32 1.138.32.464 0 .844-.107 1.138-.32.294-.218.51-.531.647-.939.137-.408.206-.898.206-1.472s-.069-1.06-.206-1.458c-.138-.403-.353-.709-.647-.917-.294-.214-.676-.32-1.145-.32-.693 0-1.198.232-1.515.697-.318.464-.477 1.13-.477 1.998Zm14.067 3.947-.996-3.663-.17-.654c-.067-.256-.133-.519-.2-.79l-.185-.76-.12-.54h-.057c-.024.127-.062.307-.114.54a67.056 67.056 0 0 1-.377 1.565c-.061.26-.118.483-.17.668l-1.046 3.634h-1.835l-2.205-7.873h1.693l1.024 3.912c.066.265.13.552.192.86a20.933 20.933 0 0 1 .277 1.572h.058c.018-.128.044-.29.078-.484.033-.199.07-.405.114-.618.042-.218.085-.422.127-.612a5.33 5.33 0 0 1 .121-.47l1.21-4.16h1.827l1.16 4.16c.051.18.108.408.17.683.061.27.116.543.163.818.053.27.086.496.1.676h.057c.019-.161.053-.38.1-.654.052-.28.11-.576.178-.89.066-.317.135-.611.206-.881l1.045-3.912h1.664l-2.219 7.873h-1.87Zm8.577-8.015c.702 0 1.304.145 1.807.434.502.289.889.7 1.159 1.23.27.531.405 1.167.405 1.906v.896H79.19c.018.764.222 1.352.61 1.764.395.412.945.619 1.651.619.503 0 .953-.048 1.352-.142.402-.1.817-.245 1.244-.434v1.358c-.394.185-.794.32-1.202.405a7.247 7.247 0 0 1-1.465.129c-.773 0-1.454-.15-2.041-.448a3.275 3.275 0 0 1-1.373-1.352c-.327-.597-.49-1.34-.49-2.226 0-.882.149-1.63.448-2.247.298-.617.718-1.086 1.258-1.409.54-.322 1.172-.483 1.892-.483Zm0 1.259c-.526 0-.953.17-1.28.512-.322.341-.512.841-.57 1.5h3.585a2.759 2.759 0 0 0-.199-1.045 1.518 1.518 0 0 0-.569-.711c-.25-.17-.573-.256-.967-.256Zm9.246-1.26a4.81 4.81 0 0 1 .84.08L91 15.355c-.1-.029-.222-.05-.37-.064a3.87 3.87 0 0 0-.383-.021c-.299 0-.584.05-.854.149a2.01 2.01 0 0 0-1.209 1.173c-.119.294-.178.636-.178 1.024v4.118H86.33v-7.873h1.308l.228 1.387h.078c.157-.28.351-.536.583-.768.233-.232.498-.417.797-.555.304-.142.636-.213.996-.213Zm5.433 0c.702 0 1.305.146 1.807.435.503.289.89.7 1.16 1.23.27.531.405 1.167.405 1.906v.896h-5.256c.019.764.223 1.352.611 1.764.394.412.944.619 1.65.619.503 0 .953-.048 1.352-.142.403-.1.818-.245 1.244-.434v1.358c-.393.185-.794.32-1.202.405a7.247 7.247 0 0 1-1.465.129c-.773 0-1.453-.15-2.041-.448a3.275 3.275 0 0 1-1.373-1.352c-.327-.597-.49-1.34-.49-2.226 0-.882.149-1.63.448-2.247.299-.617.718-1.086 1.259-1.409.54-.322 1.17-.483 1.891-.483Zm0 1.26c-.526 0-.953.17-1.28.512-.322.341-.512.841-.569 1.5h3.584a2.759 2.759 0 0 0-.198-1.045 1.518 1.518 0 0 0-.57-.711c-.25-.17-.573-.256-.967-.256Zm7.902 6.906c-.939 0-1.693-.342-2.262-1.025-.564-.687-.846-1.7-.846-3.036 0-1.352.287-2.373.86-3.066.579-.692 1.34-1.038 2.283-1.038.399 0 .747.054 1.046.164.299.104.554.246.768.426.218.18.403.382.555.605h.078a16.378 16.378 0 0 1-.085-.633 7.546 7.546 0 0 1-.043-.776v-2.83h1.679v11.066h-1.309l-.299-1.074h-.071a2.654 2.654 0 0 1-.541.62c-.213.18-.469.324-.768.433a3.002 3.002 0 0 1-1.045.164Zm.469-1.359c.716 0 1.221-.206 1.515-.619.294-.412.446-1.03.455-1.856v-.22c0-.882-.142-1.558-.426-2.027-.285-.474-.804-.712-1.558-.712-.602 0-1.062.245-1.38.733-.312.484-.469 1.16-.469 2.027 0 .868.157 1.532.469 1.991.318.456.783.683 1.394.683Zm11.415-9.85v2.667c0 .308-.009.612-.028.91a19.62 19.62 0 0 1-.043.69h.071c.213-.341.51-.628.889-.86.384-.238.875-.356 1.472-.356.934 0 1.686.344 2.255 1.031.569.683.854 1.695.854 3.037 0 .891-.131 1.64-.392 2.247s-.628 1.067-1.102 1.38c-.469.308-1.022.463-1.657.463-.597 0-1.081-.11-1.451-.328a2.871 2.871 0 0 1-.861-.775h-.121l-.306.96h-1.251V10.67h1.671Zm1.92 4.41c-.474 0-.851.094-1.131.284-.274.19-.474.474-.597.853-.123.375-.187.851-.192 1.43v.15c0 .876.138 1.547.413 2.012.28.465.787.697 1.522.697.583 0 1.031-.235 1.344-.704.313-.474.469-1.152.469-2.034 0-.892-.156-1.563-.469-2.013-.308-.45-.761-.676-1.359-.676Zm4.296-1.217h1.821l1.614 4.495c.072.204.135.405.192.605.062.194.114.386.156.576.048.19.086.379.114.569h.043c.047-.247.114-.522.2-.825.09-.308.189-.617.298-.925l1.551-4.495h1.799l-3.378 8.954a4.91 4.91 0 0 1-.719 1.309c-.28.365-.611.64-.995.825-.384.19-.823.285-1.316.285-.237 0-.443-.015-.619-.043a5.072 5.072 0 0 1-.448-.079v-1.337a3.799 3.799 0 0 0 .847.092c.298 0 .556-.058.775-.177.218-.118.402-.287.554-.505.152-.213.277-.457.377-.732l.278-.74-3.144-7.852Zm19.502 7.873h-7.475v-1.173l5.291-7.774h-5.128v-1.45h7.169v1.166l-5.291 7.78h5.434v1.451Zm4.793-8.022c.702 0 1.304.145 1.806.434.503.289.889.7 1.159 1.23.271.531.406 1.167.406 1.906v.896h-5.256c.019.764.223 1.352.612 1.764.394.412.943.619 1.65.619.502 0 .953-.048 1.351-.142.403-.1.818-.245 1.245-.434v1.358c-.394.185-.794.32-1.202.405a7.25 7.25 0 0 1-1.465.129c-.773 0-1.453-.15-2.041-.448a3.274 3.274 0 0 1-1.373-1.352c-.327-.597-.491-1.34-.491-2.226 0-.882.15-1.63.448-2.247.299-.617.719-1.086 1.259-1.409.541-.322 1.171-.483 1.892-.483Zm0 1.259c-.526 0-.953.17-1.28.512-.323.341-.512.841-.569 1.5h3.584a2.744 2.744 0 0 0-.199-1.045 1.515 1.515 0 0 0-.569-.711c-.251-.17-.574-.256-.967-.256Zm9.246-1.26a4.811 4.811 0 0 1 .839.08l-.157 1.564a2.098 2.098 0 0 0-.37-.064 3.848 3.848 0 0 0-.384-.021c-.298 0-.582.05-.853.149-.27.095-.51.242-.718.44a2 2 0 0 0-.491.733 2.716 2.716 0 0 0-.178 1.024v4.118h-1.679v-7.873h1.309l.228 1.387h.078c.157-.28.351-.536.584-.768.232-.232.497-.417.796-.555.303-.142.636-.213.996-.213Zm9.267 4.069c0 .654-.086 1.235-.256 1.742-.171.508-.42.937-.747 1.288a3.292 3.292 0 0 1-1.181.796c-.46.18-.979.27-1.558.27-.54 0-1.035-.09-1.486-.27a3.395 3.395 0 0 1-1.173-.796 3.667 3.667 0 0 1-.762-1.288c-.18-.507-.27-1.088-.27-1.742 0-.868.15-1.603.449-2.205a3.185 3.185 0 0 1 1.294-1.387c.559-.317 1.225-.476 1.999-.476.725 0 1.365.159 1.92.476.555.318.988.78 1.301 1.387.313.607.47 1.342.47 2.205Zm-5.711 0c0 .574.069 1.064.206 1.472.142.408.36.72.654.939.294.213.674.32 1.138.32.465 0 .844-.107 1.138-.32.294-.218.51-.531.647-.939.138-.408.206-.898.206-1.472s-.068-1.06-.206-1.458c-.137-.403-.353-.709-.647-.917-.294-.214-.675-.32-1.145-.32-.692 0-1.197.232-1.515.697-.317.464-.476 1.13-.476 1.998Zm11.671-4.068c.934 0 1.683.341 2.247 1.024.569.683.853 1.697.853 3.044 0 .891-.132 1.643-.398 2.255-.261.606-.628 1.066-1.102 1.38-.469.307-1.017.462-1.643.462-.398 0-.745-.053-1.038-.157a2.602 2.602 0 0 1-.755-.405 2.897 2.897 0 0 1-.526-.555h-.099c.024.19.045.4.064.633.024.228.035.436.035.626v3.207h-1.678V13.862h1.366l.234 1.088h.078a3.26 3.26 0 0 1 .534-.618c.213-.19.469-.34.768-.448a3.01 3.01 0 0 1 1.06-.171Zm-.449 1.365c-.46 0-.829.093-1.109.278-.275.18-.476.453-.605.818-.123.365-.189.822-.199 1.372v.235c0 .583.06 1.079.178 1.486.123.403.325.712.605.925.284.209.668.313 1.152.313.407 0 .744-.111 1.01-.334.27-.223.471-.54.604-.953.133-.413.2-.899.2-1.458 0-.85-.153-1.508-.456-1.978-.298-.469-.759-.704-1.38-.704Zm10.775 4.41c0 .517-.125.953-.377 1.309-.251.355-.618.625-1.102.81-.479.18-1.067.27-1.764.27-.55 0-1.024-.04-1.422-.12a4.873 4.873 0 0 1-1.117-.356v-1.444c.375.176.795.327 1.259.456.469.128.913.192 1.33.192.55 0 .946-.086 1.188-.256a.822.822 0 0 0 .362-.698.736.736 0 0 0-.149-.455c-.095-.137-.275-.277-.54-.42a10.399 10.399 0 0 0-1.152-.526 9.668 9.668 0 0 1-1.26-.597 2.189 2.189 0 0 1-.774-.718c-.176-.285-.264-.647-.264-1.088 0-.697.275-1.226.825-1.586.555-.366 1.288-.548 2.198-.548.483 0 .938.05 1.365.15.432.094.854.234 1.266.419l-.526 1.259a7.905 7.905 0 0 0-1.074-.384 3.847 3.847 0 0 0-1.088-.157c-.431 0-.761.066-.989.2a.63.63 0 0 0-.334.568.7.7 0 0 0 .164.47c.109.128.296.256.561.384.27.128.645.287 1.125.476.468.18.874.37 1.215.57.346.194.612.433.797.718.185.284.277.651.277 1.102Z" fill="#fff"/>
    <path d="M37.414 33.11V1.331" stroke="#7750C8"/>
    <defs>
        <linearGradient id="a" x1="1" y1="17.221" x2="192.338" y2="17.221" gradientUnits="userSpaceOnUse">
            <stop stop-color="#303389"/>
            <stop offset="1" stop-color="#9D5FEA"/>
        </linearGradient>
    </defs>
</svg>